<?xml version="1.0" encoding="utf-8"?>
<svg xmlns="http://www.w3.org/2000/svg" version="1.1" width="1000" height="800">

<line x1="0" y1="0" x2="1000" y2="0" stroke="lightgrey" />
<text x="5" y="-5" fill="lightgrey" >0</text>
<line x1="0" y1="100" x2="1000" y2="100" stroke="lightgrey" />
<text x="5" y="95" fill="lightgrey" >100</text>
<line x1="0" y1="200" x2="1000" y2="200" stroke="lightgrey" />
<text x="5" y="195" fill="lightgrey" >200</text>
<line x1="0" y1="300" x2="1000" y2="300" stroke="lightgrey" />
<text x="5" y="295" fill="lightgrey" >300</text>
<line x1="0" y1="400" x2="1000" y2="400" stroke="lightgrey" />
<text x="5" y="395" fill="lightgrey" >400</text>
<line x1="0" y1="500" x2="1000" y2="500" stroke="lightgrey" />
<text x="5" y="495" fill="lightgrey" >500</text>
<line x1="0" y1="600" x2="1000" y2="600" stroke="lightgrey" />
<text x="5" y="595" fill="lightgrey" >600</text>
<line x1="0" y1="700" x2="1000" y2="700" stroke="lightgrey" />
<text x="5" y="695" fill="lightgrey" >700</text>
<line x1="0" y1="800" x2="1000" y2="800" stroke="lightgrey" />
<text x="5" y="795" fill="lightgrey" >800</text>
<line x1="0" y1="0" x2="0" y2="800" stroke="lightgrey" />
<text x="5" y="15" fill="lightgrey" >0</text>
<line x1="100" y1="0" x2="100" y2="800" stroke="lightgrey" />
<text x="105" y="15" fill="lightgrey" >100</text>
<line x1="200" y1="0" x2="200" y2="800" stroke="lightgrey" />
<text x="205" y="15" fill="lightgrey" >200</text>
<line x1="300" y1="0" x2="300" y2="800" stroke="lightgrey" />
<text x="305" y="15" fill="lightgrey" >300</text>
<line x1="400" y1="0" x2="400" y2="800" stroke="lightgrey" />
<text x="405" y="15" fill="lightgrey" >400</text>
<line x1="500" y1="0" x2="500" y2="800" stroke="lightgrey" />
<text x="505" y="15" fill="lightgrey" >500</text>
<line x1="600" y1="0" x2="600" y2="800" stroke="lightgrey" />
<text x="605" y="15" fill="lightgrey" >600</text>
<line x1="700" y1="0" x2="700" y2="800" stroke="lightgrey" />
<text x="705" y="15" fill="lightgrey" >700</text>
<line x1="800" y1="0" x2="800" y2="800" stroke="lightgrey" />
<text x="805" y="15" fill="lightgrey" >800</text>
<line x1="900" y1="0" x2="900" y2="800" stroke="lightgrey" />
<text x="905" y="15" fill="lightgrey" >900</text>
<line x1="1000" y1="0" x2="1000" y2="800" stroke="lightgrey" />
<text x="1005" y="15" fill="lightgrey" >1000</text>
<rect x="100" y="450" width="3" height="30" stroke="rgb(0,0,255)" fill="rgb(0,0,255)" />
<rect x="103" y="450" width="3" height="30" stroke="rgb(1,0,254)" fill="rgb(1,0,254)" />
<rect x="106" y="450" width="3" height="30" stroke="rgb(2,0,253)" fill="rgb(2,0,253)" />
<rect x="109" y="450" width="3" height="30" stroke="rgb(3,0,252)" fill="rgb(3,0,252)" />
<rect x="112" y="450" width="3" height="30" stroke="rgb(4,0,251)" fill="rgb(4,0,251)" />
<rect x="115" y="450" width="3" height="30" stroke="rgb(5,0,250)" fill="rgb(5,0,250)" />
<rect x="118" y="450" width="3" height="30" stroke="rgb(6,0,249)" fill="rgb(6,0,249)" />
<rect x="121" y="450" width="3" height="30" stroke="rgb(7,0,248)" fill="rgb(7,0,248)" />
<rect x="124" y="450" width="3" height="30" stroke="rgb(8,0,247)" fill="rgb(8,0,247)" />
<rect x="127" y="450" width="3" height="30" stroke="rgb(9,0,246)" fill="rgb(9,0,246)" />
<rect x="130" y="450" width="3" height="30" stroke="rgb(10,0,245)" fill="rgb(10,0,245)" />
<rect x="133" y="450" width="3" height="30" stroke="rgb(11,0,244)" fill="rgb(11,0,244)" />
<rect x="136" y="450" width="3" height="30" stroke="rgb(12,0,243)" fill="rgb(12,0,243)" />
<rect x="139" y="450" width="3" height="30" stroke="rgb(13,0,242)" fill="rgb(13,0,242)" />
<rect x="142" y="450" width="3" height="30" stroke="rgb(14,0,241)" fill="rgb(14,0,241)" />
<rect x="145" y="450" width="3" height="30" stroke="rgb(15,0,240)" fill="rgb(15,0,240)" />
<rect x="148" y="450" width="3" height="30" stroke="rgb(16,0,239)" fill="rgb(16,0,239)" />
<rect x="151" y="450" width="3" height="30" stroke="rgb(17,0,238)" fill="rgb(17,0,238)" />
<rect x="154" y="450" width="3" height="30" stroke="rgb(18,0,237)" fill="rgb(18,0,237)" />
<rect x="157" y="450" width="3" height="30" stroke="rgb(19,0,236)" fill="rgb(19,0,236)" />
<rect x="160" y="450" width="3" height="30" stroke="rgb(20,0,235)" fill="rgb(20,0,235)" />
<rect x="163" y="450" width="3" height="30" stroke="rgb(21,0,234)" fill="rgb(21,0,234)" />
<rect x="166" y="450" width="3" height="30" stroke="rgb(22,0,233)" fill="rgb(22,0,233)" />
<rect x="169" y="450" width="3" height="30" stroke="rgb(23,0,232)" fill="rgb(23,0,232)" />
<rect x="172" y="450" width="3" height="30" stroke="rgb(24,0,231)" fill="rgb(24,0,231)" />
<rect x="175" y="450" width="3" height="30" stroke="rgb(25,0,230)" fill="rgb(25,0,230)" />
<rect x="178" y="450" width="3" height="30" stroke="rgb(26,0,229)" fill="rgb(26,0,229)" />
<rect x="181" y="450" width="3" height="30" stroke="rgb(27,0,228)" fill="rgb(27,0,228)" />
<rect x="184" y="450" width="3" height="30" stroke="rgb(28,0,227)" fill="rgb(28,0,227)" />
<rect x="187" y="450" width="3" height="30" stroke="rgb(29,0,226)" fill="rgb(29,0,226)" />
<rect x="190" y="450" width="3" height="30" stroke="rgb(30,0,225)" fill="rgb(30,0,225)" />
<rect x="193" y="450" width="3" height="30" stroke="rgb(31,0,224)" fill="rgb(31,0,224)" />
<rect x="196" y="450" width="3" height="30" stroke="rgb(32,0,223)" fill="rgb(32,0,223)" />
<rect x="199" y="450" width="3" height="30" stroke="rgb(33,0,222)" fill="rgb(33,0,222)" />
<rect x="202" y="450" width="3" height="30" stroke="rgb(34,0,221)" fill="rgb(34,0,221)" />
<rect x="205" y="450" width="3" height="30" stroke="rgb(35,0,220)" fill="rgb(35,0,220)" />
<rect x="208" y="450" width="3" height="30" stroke="rgb(36,0,219)" fill="rgb(36,0,219)" />
<rect x="211" y="450" width="3" height="30" stroke="rgb(37,0,218)" fill="rgb(37,0,218)" />
<rect x="214" y="450" width="3" height="30" stroke="rgb(38,0,217)" fill="rgb(38,0,217)" />
<rect x="217" y="450" width="3" height="30" stroke="rgb(39,0,216)" fill="rgb(39,0,216)" />
<rect x="220" y="450" width="3" height="30" stroke="rgb(40,0,215)" fill="rgb(40,0,215)" />
<rect x="223" y="450" width="3" height="30" stroke="rgb(41,0,214)" fill="rgb(41,0,214)" />
<rect x="226" y="450" width="3" height="30" stroke="rgb(42,0,213)" fill="rgb(42,0,213)" />
<rect x="229" y="450" width="3" height="30" stroke="rgb(43,0,212)" fill="rgb(43,0,212)" />
<rect x="232" y="450" width="3" height="30" stroke="rgb(44,0,211)" fill="rgb(44,0,211)" />
<rect x="235" y="450" width="3" height="30" stroke="rgb(45,0,210)" fill="rgb(45,0,210)" />
<rect x="238" y="450" width="3" height="30" stroke="rgb(46,0,209)" fill="rgb(46,0,209)" />
<rect x="241" y="450" width="3" height="30" stroke="rgb(47,0,208)" fill="rgb(47,0,208)" />
<rect x="244" y="450" width="3" height="30" stroke="rgb(48,0,207)" fill="rgb(48,0,207)" />
<rect x="247" y="450" width="3" height="30" stroke="rgb(49,0,206)" fill="rgb(49,0,206)" />
<rect x="250" y="450" width="3" height="30" stroke="rgb(50,0,205)" fill="rgb(50,0,205)" />
<rect x="253" y="450" width="3" height="30" stroke="rgb(51,0,204)" fill="rgb(51,0,204)" />
<rect x="256" y="450" width="3" height="30" stroke="rgb(52,0,203)" fill="rgb(52,0,203)" />
<rect x="259" y="450" width="3" height="30" stroke="rgb(53,0,202)" fill="rgb(53,0,202)" />
<rect x="262" y="450" width="3" height="30" stroke="rgb(54,0,201)" fill="rgb(54,0,201)" />
<rect x="265" y="450" width="3" height="30" stroke="rgb(55,0,200)" fill="rgb(55,0,200)" />
<rect x="268" y="450" width="3" height="30" stroke="rgb(56,0,199)" fill="rgb(56,0,199)" />
<rect x="271" y="450" width="3" height="30" stroke="rgb(57,0,198)" fill="rgb(57,0,198)" />
<rect x="274" y="450" width="3" height="30" stroke="rgb(58,0,197)" fill="rgb(58,0,197)" />
<rect x="277" y="450" width="3" height="30" stroke="rgb(59,0,196)" fill="rgb(59,0,196)" />
<rect x="280" y="450" width="3" height="30" stroke="rgb(60,0,195)" fill="rgb(60,0,195)" />
<rect x="283" y="450" width="3" height="30" stroke="rgb(61,0,194)" fill="rgb(61,0,194)" />
<rect x="286" y="450" width="3" height="30" stroke="rgb(62,0,193)" fill="rgb(62,0,193)" />
<rect x="289" y="450" width="3" height="30" stroke="rgb(63,0,192)" fill="rgb(63,0,192)" />
<rect x="292" y="450" width="3" height="30" stroke="rgb(64,0,191)" fill="rgb(64,0,191)" />
<rect x="295" y="450" width="3" height="30" stroke="rgb(65,0,190)" fill="rgb(65,0,190)" />
<rect x="298" y="450" width="3" height="30" stroke="rgb(66,0,189)" fill="rgb(66,0,189)" />
<rect x="301" y="450" width="3" height="30" stroke="rgb(67,0,188)" fill="rgb(67,0,188)" />
<rect x="304" y="450" width="3" height="30" stroke="rgb(68,0,187)" fill="rgb(68,0,187)" />
<rect x="307" y="450" width="3" height="30" stroke="rgb(69,0,186)" fill="rgb(69,0,186)" />
<rect x="310" y="450" width="3" height="30" stroke="rgb(70,0,185)" fill="rgb(70,0,185)" />
<rect x="313" y="450" width="3" height="30" stroke="rgb(71,0,184)" fill="rgb(71,0,184)" />
<rect x="316" y="450" width="3" height="30" stroke="rgb(72,0,183)" fill="rgb(72,0,183)" />
<rect x="319" y="450" width="3" height="30" stroke="rgb(73,0,182)" fill="rgb(73,0,182)" />
<rect x="322" y="450" width="3" height="30" stroke="rgb(74,0,181)" fill="rgb(74,0,181)" />
<rect x="325" y="450" width="3" height="30" stroke="rgb(75,0,180)" fill="rgb(75,0,180)" />
<rect x="328" y="450" width="3" height="30" stroke="rgb(76,0,179)" fill="rgb(76,0,179)" />
<rect x="331" y="450" width="3" height="30" stroke="rgb(77,0,178)" fill="rgb(77,0,178)" />
<rect x="334" y="450" width="3" height="30" stroke="rgb(78,0,177)" fill="rgb(78,0,177)" />
<rect x="337" y="450" width="3" height="30" stroke="rgb(79,0,176)" fill="rgb(79,0,176)" />
<rect x="340" y="450" width="3" height="30" stroke="rgb(80,0,175)" fill="rgb(80,0,175)" />
<rect x="343" y="450" width="3" height="30" stroke="rgb(81,0,174)" fill="rgb(81,0,174)" />
<rect x="346" y="450" width="3" height="30" stroke="rgb(82,0,173)" fill="rgb(82,0,173)" />
<rect x="349" y="450" width="3" height="30" stroke="rgb(83,0,172)" fill="rgb(83,0,172)" />
<rect x="352" y="450" width="3" height="30" stroke="rgb(84,0,171)" fill="rgb(84,0,171)" />
<rect x="355" y="450" width="3" height="30" stroke="rgb(85,0,170)" fill="rgb(85,0,170)" />
<rect x="358" y="450" width="3" height="30" stroke="rgb(86,0,169)" fill="rgb(86,0,169)" />
<rect x="361" y="450" width="3" height="30" stroke="rgb(87,0,168)" fill="rgb(87,0,168)" />
<rect x="364" y="450" width="3" height="30" stroke="rgb(88,0,167)" fill="rgb(88,0,167)" />
<rect x="367" y="450" width="3" height="30" stroke="rgb(89,0,166)" fill="rgb(89,0,166)" />
<rect x="370" y="450" width="3" height="30" stroke="rgb(90,0,165)" fill="rgb(90,0,165)" />
<rect x="373" y="450" width="3" height="30" stroke="rgb(91,0,164)" fill="rgb(91,0,164)" />
<rect x="376" y="450" width="3" height="30" stroke="rgb(92,0,163)" fill="rgb(92,0,163)" />
<rect x="379" y="450" width="3" height="30" stroke="rgb(93,0,162)" fill="rgb(93,0,162)" />
<rect x="382" y="450" width="3" height="30" stroke="rgb(94,0,161)" fill="rgb(94,0,161)" />
<rect x="385" y="450" width="3" height="30" stroke="rgb(95,0,160)" fill="rgb(95,0,160)" />
<rect x="388" y="450" width="3" height="30" stroke="rgb(96,0,159)" fill="rgb(96,0,159)" />
<rect x="391" y="450" width="3" height="30" stroke="rgb(97,0,158)" fill="rgb(97,0,158)" />
<rect x="394" y="450" width="3" height="30" stroke="rgb(98,0,157)" fill="rgb(98,0,157)" />
<rect x="397" y="450" width="3" height="30" stroke="rgb(99,0,156)" fill="rgb(99,0,156)" />
<rect x="400" y="450" width="3" height="30" stroke="rgb(100,0,155)" fill="rgb(100,0,155)" />
<rect x="403" y="450" width="3" height="30" stroke="rgb(101,0,154)" fill="rgb(101,0,154)" />
<rect x="406" y="450" width="3" height="30" stroke="rgb(102,0,153)" fill="rgb(102,0,153)" />
<rect x="409" y="450" width="3" height="30" stroke="rgb(103,0,152)" fill="rgb(103,0,152)" />
<rect x="412" y="450" width="3" height="30" stroke="rgb(104,0,151)" fill="rgb(104,0,151)" />
<rect x="415" y="450" width="3" height="30" stroke="rgb(105,0,150)" fill="rgb(105,0,150)" />
<rect x="418" y="450" width="3" height="30" stroke="rgb(106,0,149)" fill="rgb(106,0,149)" />
<rect x="421" y="450" width="3" height="30" stroke="rgb(107,0,148)" fill="rgb(107,0,148)" />
<rect x="424" y="450" width="3" height="30" stroke="rgb(108,0,147)" fill="rgb(108,0,147)" />
<rect x="427" y="450" width="3" height="30" stroke="rgb(109,0,146)" fill="rgb(109,0,146)" />
<rect x="430" y="450" width="3" height="30" stroke="rgb(110,0,145)" fill="rgb(110,0,145)" />
<rect x="433" y="450" width="3" height="30" stroke="rgb(111,0,144)" fill="rgb(111,0,144)" />
<rect x="436" y="450" width="3" height="30" stroke="rgb(112,0,143)" fill="rgb(112,0,143)" />
<rect x="439" y="450" width="3" height="30" stroke="rgb(113,0,142)" fill="rgb(113,0,142)" />
<rect x="442" y="450" width="3" height="30" stroke="rgb(114,0,141)" fill="rgb(114,0,141)" />
<rect x="445" y="450" width="3" height="30" stroke="rgb(115,0,140)" fill="rgb(115,0,140)" />
<rect x="448" y="450" width="3" height="30" stroke="rgb(116,0,139)" fill="rgb(116,0,139)" />
<rect x="451" y="450" width="3" height="30" stroke="rgb(117,0,138)" fill="rgb(117,0,138)" />
<rect x="454" y="450" width="3" height="30" stroke="rgb(118,0,137)" fill="rgb(118,0,137)" />
<rect x="457" y="450" width="3" height="30" stroke="rgb(119,0,136)" fill="rgb(119,0,136)" />
<rect x="460" y="450" width="3" height="30" stroke="rgb(120,0,135)" fill="rgb(120,0,135)" />
<rect x="463" y="450" width="3" height="30" stroke="rgb(121,0,134)" fill="rgb(121,0,134)" />
<rect x="466" y="450" width="3" height="30" stroke="rgb(122,0,133)" fill="rgb(122,0,133)" />
<rect x="469" y="450" width="3" height="30" stroke="rgb(123,0,132)" fill="rgb(123,0,132)" />
<rect x="472" y="450" width="3" height="30" stroke="rgb(124,0,131)" fill="rgb(124,0,131)" />
<rect x="475" y="450" width="3" height="30" stroke="rgb(125,0,130)" fill="rgb(125,0,130)" />
<rect x="478" y="450" width="3" height="30" stroke="rgb(126,0,129)" fill="rgb(126,0,129)" />
<rect x="481" y="450" width="3" height="30" stroke="rgb(127,0,128)" fill="rgb(127,0,128)" />
<rect x="484" y="450" width="3" height="30" stroke="rgb(128,0,127)" fill="rgb(128,0,127)" />
<rect x="487" y="450" width="3" height="30" stroke="rgb(129,0,126)" fill="rgb(129,0,126)" />
<rect x="490" y="450" width="3" height="30" stroke="rgb(130,0,125)" fill="rgb(130,0,125)" />
<rect x="493" y="450" width="3" height="30" stroke="rgb(131,0,124)" fill="rgb(131,0,124)" />
<rect x="496" y="450" width="3" height="30" stroke="rgb(132,0,123)" fill="rgb(132,0,123)" />
<rect x="499" y="450" width="3" height="30" stroke="rgb(133,0,122)" fill="rgb(133,0,122)" />
<rect x="502" y="450" width="3" height="30" stroke="rgb(134,0,121)" fill="rgb(134,0,121)" />
<rect x="505" y="450" width="3" height="30" stroke="rgb(135,0,120)" fill="rgb(135,0,120)" />
<rect x="508" y="450" width="3" height="30" stroke="rgb(136,0,119)" fill="rgb(136,0,119)" />
<rect x="511" y="450" width="3" height="30" stroke="rgb(137,0,118)" fill="rgb(137,0,118)" />
<rect x="514" y="450" width="3" height="30" stroke="rgb(138,0,117)" fill="rgb(138,0,117)" />
<rect x="517" y="450" width="3" height="30" stroke="rgb(139,0,116)" fill="rgb(139,0,116)" />
<rect x="520" y="450" width="3" height="30" stroke="rgb(140,0,115)" fill="rgb(140,0,115)" />
<rect x="523" y="450" width="3" height="30" stroke="rgb(141,0,114)" fill="rgb(141,0,114)" />
<rect x="526" y="450" width="3" height="30" stroke="rgb(142,0,113)" fill="rgb(142,0,113)" />
<rect x="529" y="450" width="3" height="30" stroke="rgb(143,0,112)" fill="rgb(143,0,112)" />
<rect x="532" y="450" width="3" height="30" stroke="rgb(144,0,111)" fill="rgb(144,0,111)" />
<rect x="535" y="450" width="3" height="30" stroke="rgb(145,0,110)" fill="rgb(145,0,110)" />
<rect x="538" y="450" width="3" height="30" stroke="rgb(146,0,109)" fill="rgb(146,0,109)" />
<rect x="541" y="450" width="3" height="30" stroke="rgb(147,0,108)" fill="rgb(147,0,108)" />
<rect x="544" y="450" width="3" height="30" stroke="rgb(148,0,107)" fill="rgb(148,0,107)" />
<rect x="547" y="450" width="3" height="30" stroke="rgb(149,0,106)" fill="rgb(149,0,106)" />
<rect x="550" y="450" width="3" height="30" stroke="rgb(150,0,105)" fill="rgb(150,0,105)" />
<rect x="553" y="450" width="3" height="30" stroke="rgb(151,0,104)" fill="rgb(151,0,104)" />
<rect x="556" y="450" width="3" height="30" stroke="rgb(152,0,103)" fill="rgb(152,0,103)" />
<rect x="559" y="450" width="3" height="30" stroke="rgb(153,0,102)" fill="rgb(153,0,102)" />
<rect x="562" y="450" width="3" height="30" stroke="rgb(154,0,101)" fill="rgb(154,0,101)" />
<rect x="565" y="450" width="3" height="30" stroke="rgb(155,0,100)" fill="rgb(155,0,100)" />
<rect x="568" y="450" width="3" height="30" stroke="rgb(156,0,99)" fill="rgb(156,0,99)" />
<rect x="571" y="450" width="3" height="30" stroke="rgb(157,0,98)" fill="rgb(157,0,98)" />
<rect x="574" y="450" width="3" height="30" stroke="rgb(158,0,97)" fill="rgb(158,0,97)" />
<rect x="577" y="450" width="3" height="30" stroke="rgb(159,0,96)" fill="rgb(159,0,96)" />
<rect x="580" y="450" width="3" height="30" stroke="rgb(160,0,95)" fill="rgb(160,0,95)" />
<rect x="583" y="450" width="3" height="30" stroke="rgb(161,0,94)" fill="rgb(161,0,94)" />
<rect x="586" y="450" width="3" height="30" stroke="rgb(162,0,93)" fill="rgb(162,0,93)" />
<rect x="589" y="450" width="3" height="30" stroke="rgb(163,0,92)" fill="rgb(163,0,92)" />
<rect x="592" y="450" width="3" height="30" stroke="rgb(164,0,91)" fill="rgb(164,0,91)" />
<rect x="595" y="450" width="3" height="30" stroke="rgb(165,0,90)" fill="rgb(165,0,90)" />
<rect x="598" y="450" width="3" height="30" stroke="rgb(166,0,89)" fill="rgb(166,0,89)" />
<rect x="601" y="450" width="3" height="30" stroke="rgb(167,0,88)" fill="rgb(167,0,88)" />
<rect x="604" y="450" width="3" height="30" stroke="rgb(168,0,87)" fill="rgb(168,0,87)" />
<rect x="607" y="450" width="3" height="30" stroke="rgb(169,0,86)" fill="rgb(169,0,86)" />
<rect x="610" y="450" width="3" height="30" stroke="rgb(170,0,85)" fill="rgb(170,0,85)" />
<rect x="613" y="450" width="3" height="30" stroke="rgb(171,0,84)" fill="rgb(171,0,84)" />
<rect x="616" y="450" width="3" height="30" stroke="rgb(172,0,83)" fill="rgb(172,0,83)" />
<rect x="619" y="450" width="3" height="30" stroke="rgb(173,0,82)" fill="rgb(173,0,82)" />
<rect x="622" y="450" width="3" height="30" stroke="rgb(174,0,81)" fill="rgb(174,0,81)" />
<rect x="625" y="450" width="3" height="30" stroke="rgb(175,0,80)" fill="rgb(175,0,80)" />
<rect x="628" y="450" width="3" height="30" stroke="rgb(176,0,79)" fill="rgb(176,0,79)" />
<rect x="631" y="450" width="3" height="30" stroke="rgb(177,0,78)" fill="rgb(177,0,78)" />
<rect x="634" y="450" width="3" height="30" stroke="rgb(178,0,77)" fill="rgb(178,0,77)" />
<rect x="637" y="450" width="3" height="30" stroke="rgb(179,0,76)" fill="rgb(179,0,76)" />
<rect x="640" y="450" width="3" height="30" stroke="rgb(180,0,75)" fill="rgb(180,0,75)" />
<rect x="643" y="450" width="3" height="30" stroke="rgb(181,0,74)" fill="rgb(181,0,74)" />
<rect x="646" y="450" width="3" height="30" stroke="rgb(182,0,73)" fill="rgb(182,0,73)" />
<rect x="649" y="450" width="3" height="30" stroke="rgb(183,0,72)" fill="rgb(183,0,72)" />
<rect x="652" y="450" width="3" height="30" stroke="rgb(184,0,71)" fill="rgb(184,0,71)" />
<rect x="655" y="450" width="3" height="30" stroke="rgb(185,0,70)" fill="rgb(185,0,70)" />
<rect x="658" y="450" width="3" height="30" stroke="rgb(186,0,69)" fill="rgb(186,0,69)" />
<rect x="661" y="450" width="3" height="30" stroke="rgb(187,0,68)" fill="rgb(187,0,68)" />
<rect x="664" y="450" width="3" height="30" stroke="rgb(188,0,67)" fill="rgb(188,0,67)" />
<rect x="667" y="450" width="3" height="30" stroke="rgb(189,0,66)" fill="rgb(189,0,66)" />
<rect x="670" y="450" width="3" height="30" stroke="rgb(190,0,65)" fill="rgb(190,0,65)" />
<rect x="673" y="450" width="3" height="30" stroke="rgb(191,0,64)" fill="rgb(191,0,64)" />
<rect x="676" y="450" width="3" height="30" stroke="rgb(192,0,63)" fill="rgb(192,0,63)" />
<rect x="679" y="450" width="3" height="30" stroke="rgb(193,0,62)" fill="rgb(193,0,62)" />
<rect x="682" y="450" width="3" height="30" stroke="rgb(194,0,61)" fill="rgb(194,0,61)" />
<rect x="685" y="450" width="3" height="30" stroke="rgb(195,0,60)" fill="rgb(195,0,60)" />
<rect x="688" y="450" width="3" height="30" stroke="rgb(196,0,59)" fill="rgb(196,0,59)" />
<rect x="691" y="450" width="3" height="30" stroke="rgb(197,0,58)" fill="rgb(197,0,58)" />
<rect x="694" y="450" width="3" height="30" stroke="rgb(198,0,57)" fill="rgb(198,0,57)" />
<rect x="697" y="450" width="3" height="30" stroke="rgb(199,0,56)" fill="rgb(199,0,56)" />
<rect x="700" y="450" width="3" height="30" stroke="rgb(200,0,55)" fill="rgb(200,0,55)" />
<rect x="703" y="450" width="3" height="30" stroke="rgb(201,0,54)" fill="rgb(201,0,54)" />
<rect x="706" y="450" width="3" height="30" stroke="rgb(202,0,53)" fill="rgb(202,0,53)" />
<rect x="709" y="450" width="3" height="30" stroke="rgb(203,0,52)" fill="rgb(203,0,52)" />
<rect x="712" y="450" width="3" height="30" stroke="rgb(204,0,51)" fill="rgb(204,0,51)" />
<rect x="715" y="450" width="3" height="30" stroke="rgb(205,0,50)" fill="rgb(205,0,50)" />
<rect x="718" y="450" width="3" height="30" stroke="rgb(206,0,49)" fill="rgb(206,0,49)" />
<rect x="721" y="450" width="3" height="30" stroke="rgb(207,0,48)" fill="rgb(207,0,48)" />
<rect x="724" y="450" width="3" height="30" stroke="rgb(208,0,47)" fill="rgb(208,0,47)" />
<rect x="727" y="450" width="3" height="30" stroke="rgb(209,0,46)" fill="rgb(209,0,46)" />
<rect x="730" y="450" width="3" height="30" stroke="rgb(210,0,45)" fill="rgb(210,0,45)" />
<rect x="733" y="450" width="3" height="30" stroke="rgb(211,0,44)" fill="rgb(211,0,44)" />
<rect x="736" y="450" width="3" height="30" stroke="rgb(212,0,43)" fill="rgb(212,0,43)" />
<rect x="739" y="450" width="3" height="30" stroke="rgb(213,0,42)" fill="rgb(213,0,42)" />
<rect x="742" y="450" width="3" height="30" stroke="rgb(214,0,41)" fill="rgb(214,0,41)" />
<rect x="745" y="450" width="3" height="30" stroke="rgb(215,0,40)" fill="rgb(215,0,40)" />
<rect x="748" y="450" width="3" height="30" stroke="rgb(216,0,39)" fill="rgb(216,0,39)" />
<rect x="751" y="450" width="3" height="30" stroke="rgb(217,0,38)" fill="rgb(217,0,38)" />
<rect x="754" y="450" width="3" height="30" stroke="rgb(218,0,37)" fill="rgb(218,0,37)" />
<rect x="757" y="450" width="3" height="30" stroke="rgb(219,0,36)" fill="rgb(219,0,36)" />
<rect x="760" y="450" width="3" height="30" stroke="rgb(220,0,35)" fill="rgb(220,0,35)" />
<rect x="763" y="450" width="3" height="30" stroke="rgb(221,0,34)" fill="rgb(221,0,34)" />
<rect x="766" y="450" width="3" height="30" stroke="rgb(222,0,33)" fill="rgb(222,0,33)" />
<rect x="769" y="450" width="3" height="30" stroke="rgb(223,0,32)" fill="rgb(223,0,32)" />
<rect x="772" y="450" width="3" height="30" stroke="rgb(224,0,31)" fill="rgb(224,0,31)" />
<rect x="775" y="450" width="3" height="30" stroke="rgb(225,0,30)" fill="rgb(225,0,30)" />
<rect x="778" y="450" width="3" height="30" stroke="rgb(226,0,29)" fill="rgb(226,0,29)" />
<rect x="781" y="450" width="3" height="30" stroke="rgb(227,0,28)" fill="rgb(227,0,28)" />
<rect x="784" y="450" width="3" height="30" stroke="rgb(228,0,27)" fill="rgb(228,0,27)" />
<rect x="787" y="450" width="3" height="30" stroke="rgb(229,0,26)" fill="rgb(229,0,26)" />
<rect x="790" y="450" width="3" height="30" stroke="rgb(230,0,25)" fill="rgb(230,0,25)" />
<rect x="793" y="450" width="3" height="30" stroke="rgb(231,0,24)" fill="rgb(231,0,24)" />
<rect x="796" y="450" width="3" height="30" stroke="rgb(232,0,23)" fill="rgb(232,0,23)" />
<rect x="799" y="450" width="3" height="30" stroke="rgb(233,0,22)" fill="rgb(233,0,22)" />
<rect x="802" y="450" width="3" height="30" stroke="rgb(234,0,21)" fill="rgb(234,0,21)" />
<rect x="805" y="450" width="3" height="30" stroke="rgb(235,0,20)" fill="rgb(235,0,20)" />
<rect x="808" y="450" width="3" height="30" stroke="rgb(236,0,19)" fill="rgb(236,0,19)" />
<rect x="811" y="450" width="3" height="30" stroke="rgb(237,0,18)" fill="rgb(237,0,18)" />
<rect x="814" y="450" width="3" height="30" stroke="rgb(238,0,17)" fill="rgb(238,0,17)" />
<rect x="817" y="450" width="3" height="30" stroke="rgb(239,0,16)" fill="rgb(239,0,16)" />
<rect x="820" y="450" width="3" height="30" stroke="rgb(240,0,15)" fill="rgb(240,0,15)" />
<rect x="823" y="450" width="3" height="30" stroke="rgb(241,0,14)" fill="rgb(241,0,14)" />
<rect x="826" y="450" width="3" height="30" stroke="rgb(242,0,13)" fill="rgb(242,0,13)" />
<rect x="829" y="450" width="3" height="30" stroke="rgb(243,0,12)" fill="rgb(243,0,12)" />
<rect x="832" y="450" width="3" height="30" stroke="rgb(244,0,11)" fill="rgb(244,0,11)" />
<rect x="835" y="450" width="3" height="30" stroke="rgb(245,0,10)" fill="rgb(245,0,10)" />
<rect x="838" y="450" width="3" height="30" stroke="rgb(246,0,9)" fill="rgb(246,0,9)" />
<rect x="841" y="450" width="3" height="30" stroke="rgb(247,0,8)" fill="rgb(247,0,8)" />
<rect x="844" y="450" width="3" height="30" stroke="rgb(248,0,7)" fill="rgb(248,0,7)" />
<rect x="847" y="450" width="3" height="30" stroke="rgb(249,0,6)" fill="rgb(249,0,6)" />
<rect x="850" y="450" width="3" height="30" stroke="rgb(250,0,5)" fill="rgb(250,0,5)" />
<rect x="853" y="450" width="3" height="30" stroke="rgb(251,0,4)" fill="rgb(251,0,4)" />
<rect x="856" y="450" width="3" height="30" stroke="rgb(252,0,3)" fill="rgb(252,0,3)" />
<rect x="859" y="450" width="3" height="30" stroke="rgb(253,0,2)" fill="rgb(253,0,2)" />
<rect x="862" y="450" width="3" height="30" stroke="rgb(254,0,1)" fill="rgb(254,0,1)" />
<line x1="100" y1="200" x2="200" y2="100" stroke="BLACK" />
<polygon points=" 192.929,107.071 184.444,110.607 189.393,115.556" style="fill:black" />
<line x1="100" y1="200" x2="200" y2="200" stroke="BLACK" />
<polygon points=" 190,200 181.5,196.5 181.5,203.5" style="fill:black" />
<line x1="100" y1="200" x2="200" y2="400" stroke="BLACK" />
<polygon points=" 195.528,391.056 194.857,381.888 188.596,385.018" style="fill:black" />
<line x1="100" y1="300" x2="200" y2="100" stroke="BLACK" />
<polygon points=" 195.528,108.944 188.596,114.982 194.857,118.112" style="fill:black" />
<line x1="100" y1="300" x2="200" y2="200" stroke="BLACK" />
<polygon points=" 192.929,207.071 184.444,210.607 189.393,215.556" style="fill:black" />
<line x1="100" y1="300" x2="200" y2="400" stroke="BLACK" />
<polygon points=" 192.929,392.929 189.393,384.444 184.444,389.393" style="fill:black" />
<line x1="200" y1="100" x2="100" y2="300" stroke="BLACK" />
<polygon points=" 104.472,291.056 111.404,285.018 105.143,281.888" style="fill:black" />
<line x1="200" y1="100" x2="200" y2="200" stroke="BLACK" />
<polygon points=" 200,190 203.5,181.5 196.5,181.5" style="fill:black" />
<line x1="200" y1="100" x2="400" y2="100" stroke="BLACK" />
<polygon points=" 390,100 381.5,96.5 381.5,103.5" style="fill:black" />
<line x1="200" y1="200" x2="100" y2="200" stroke="BLACK" />
<polygon points=" 110,200 118.5,203.5 118.5,196.5" style="fill:black" />
<line x1="200" y1="200" x2="200" y2="100" stroke="BLACK" />
<polygon points=" 200,110 196.5,118.5 203.5,118.5" style="fill:black" />
<line x1="200" y1="400" x2="100" y2="300" stroke="BLACK" />
<polygon points=" 107.071,307.071 110.607,315.556 115.556,310.607" style="fill:black" />
<line x1="200" y1="400" x2="400" y2="300" stroke="BLACK" />
<polygon points=" 391.056,304.472 381.888,305.143 385.018,311.404" style="fill:black" />
<line x1="400" y1="100" x2="200" y2="200" stroke="BLACK" />
<polygon points=" 208.944,195.528 218.112,194.857 214.982,188.596" style="fill:black" />
<line x1="400" y1="100" x2="500" y2="200" stroke="BLACK" />
<polygon points=" 492.929,192.929 489.393,184.444 484.444,189.393" style="fill:black" />
<line x1="400" y1="300" x2="200" y2="200" stroke="BLACK" />
<polygon points=" 208.944,204.472 214.982,211.404 218.112,205.143" style="fill:black" />
<line x1="400" y1="300" x2="500" y2="200" stroke="BLACK" />
<polygon points=" 492.929,207.071 484.444,210.607 489.393,215.556" style="fill:black" />
<line x1="500" y1="200" x2="400" y2="100" stroke="BLACK" />
<polygon points=" 407.071,107.071 410.607,115.556 415.556,110.607" style="fill:black" />
<circle cx="100" cy="200" r="10" fill="rgb(105,0,150)" />
<text x="99" y="180" fill="BLUE" >A</text>
<circle cx="100" cy="300" r="10" fill="rgb(67,0,187)" />
<text x="99" y="280" fill="BLUE" >B</text>
<circle cx="200" cy="100" r="10" fill="rgb(150,0,105)" />
<text x="199" y="80" fill="BLUE" >C</text>
<circle cx="200" cy="200" r="10" fill="rgb(255,0,0)" />
<text x="199" y="180" fill="BLUE" >D</text>
<circle cx="200" cy="400" r="10" fill="rgb(112,0,142)" />
<text x="199" y="380" fill="BLUE" >E</text>
<circle cx="400" cy="100" r="10" fill="rgb(135,0,120)" />
<text x="399" y="80" fill="BLUE" >F</text>
<circle cx="400" cy="300" r="10" fill="rgb(52,0,202)" />
<text x="399" y="280" fill="BLUE" >G</text>
<circle cx="500" cy="200" r="10" fill="rgb(22,0,232)" />
<text x="499" y="180" fill="BLUE" >H</text>
  

<defs>
    <radialGradient id="redball" cx="30%" cy="30%" r="100%" fx="30%" fy="30%">
      <stop offset="0%" style="stop-color:rgb(255,250,250)" />
      <stop offset="3%" style="stop-color:rgb(255,250,250)" />
      <stop offset="7%" style="stop-color:rgb(255,160,160)" />
      <stop offset="70%" style="stop-color:rgb(255,0,0)" />
      <stop offset="100%" style="stop-color:rgb(255,0,0)" />
    </radialGradient>
    <radialGradient id="greenball" cx="30%" cy="30%" r="100%" fx="30%" fy="30%">
      <stop offset="0%" style="stop-color:rgb(250,255,250)" />
      <stop offset="3%" style="stop-color:rgb(250,255,250)" />
      <stop offset="7%" style="stop-color:rgb(160,255,160)" />
      <stop offset="70%" style="stop-color:rgb(0,255,0)" />
      <stop offset="100%" style="stop-color:rgb(0,255,0)" />
    </radialGradient>
    <radialGradient id="blueball" cx="30%" cy="30%" r="100%" fx="30%" fy="30%">
      <stop offset="0%" style="stop-color:rgb(250,250,255)" />
      <stop offset="3%" style="stop-color:rgb(250,250,255)" />
      <stop offset="7%" style="stop-color:rgb(160,160,255)" />
      <stop offset="70%" style="stop-color:rgb(0,0,255)" />
      <stop offset="100%" style="stop-color:rgb(0,255,0)" />
    </radialGradient>
    <radialGradient id="yellowball" cx="30%" cy="30%" r="100%" fx="30%" fy="30%">
      <stop offset="0%" style="stop-color:rgb(255,255,250)" />
      <stop offset="3%" style="stop-color:rgb(255,255,250)" />
      <stop offset="7%" style="stop-color:rgb(255,255,160)" />
      <stop offset="70%" style="stop-color:rgb(255,255,0)" />
      <stop offset="100%" style="stop-color:rgb(255,255,0)" />
    </radialGradient>
    <radialGradient id="greyball" cx="30%" cy="30%" r="100%" fx="30%" fy="30%">
      <stop offset="0%" style="stop-color:rgb(250,250,250)" />
      <stop offset="3%" style="stop-color:rgb(250,250,250)" />
      <stop offset="7%" style="stop-color:rgb(160,160,160)" />
      <stop offset="70%" style="stop-color:rgb(100,100,100)" />
      <stop offset="100%" style="stop-color:rgb(100,100,100)" />
    </radialGradient>
  </defs>


</svg>
